<?xml version="1.0" encoding="UTF-8" standalone="no"?>
<!-- Created with Inkscape (http://www.inkscape.org/) -->

<svg
   xmlns:dc="http://purl.org/dc/elements/1.1/"
   xmlns:cc="http://creativecommons.org/ns#"
   xmlns:rdf="http://www.w3.org/1999/02/22-rdf-syntax-ns#"
   xmlns:svg="http://www.w3.org/2000/svg"
   xmlns="http://www.w3.org/2000/svg"
   xmlns:sodipodi="http://sodipodi.sourceforge.net/DTD/sodipodi-0.dtd"
   xmlns:inkscape="http://www.inkscape.org/namespaces/inkscape"
   id="svg2"
   sodipodi:docname="marx.svg"
   viewBox="0 0 452.92 504.82"
   version="1.1"
   inkscape:version="0.48.5 r10040"
   width="100%"
   height="100%">
  <defs
     id="defs8" />
  <sodipodi:namedview
     id="base"
     bordercolor="#666666"
     inkscape:pageshadow="2"
     inkscape:window-y="27"
     pagecolor="#ffffff"
     inkscape:window-height="1014"
     inkscape:window-maximized="1"
     inkscape:zoom="0.98994949"
     inkscape:window-x="0"
     showgrid="false"
     borderopacity="1.0"
     inkscape:current-layer="layer1"
     inkscape:cx="33.520852"
     inkscape:cy="297.72964"
     inkscape:window-width="1920"
     inkscape:pageopacity="0.0"
     inkscape:document-units="px" />
  <g
     id="layer1"
     inkscape:label="Ebene 1"
     inkscape:groupmode="layer"
     transform="translate(-373.32 -354.03)">
    <path
       style="fill:#000000"
       d="m 596.81939,857.95 c 23.03335,-17.6345 -21.0233,6.66876 -30.16247,-6.44835 -23.72369,3.81828 -16.68042,-46.22897 -4.33083,-22.22948 0.45243,10.4417 13.73862,-3.72957 8.1323,10.35784 11.54556,20.61364 10.48532,-40.48593 13.49571,-11.7039 8.81214,-20.36228 20.33399,27.78221 26.58615,-1.85929 6.16227,-21.52716 -18.7275,-48.51447 4.80694,-65.20529 -2.74776,21.63131 0.50608,48.79552 19.83897,61.98439 13.34783,-2.73028 20.23197,11.03002 4.70457,15.81313 18.1586,4.60581 19.51308,-49.73673 22.13584,-17.18198 0.96545,34.75685 -42.86001,23.68459 -62.16667,37.19604 -1.0135,-0.24104 -2.02701,-0.48207 -3.04051,-0.72311 z m -61.4932,-4.56307 c -16.50338,22.57751 -42.89225,-29.13935 -30.00296,-26.6126 2.63959,12.7255 17.84798,-28.92055 19.8314,-4.6334 -3.10801,11.44205 -3.62454,22.2598 2.7091,5.32637 11.66158,-24.09178 8.16958,19.40741 7.46246,25.91963 z m -30.402,-14.23643 c -3.09226,1.81631 3.24733,2.11701 0,0 z m -7.2892,9.1964 c -1.3591,-19.86394 -12.87547,-11.95948 -12.88691,-2.51367 -6.06744,-18.74218 3.94099,-58.48351 12.08384,-19.51525 1.67926,7.19727 2.05874,14.73149 0.80307,22.02892 z m 158.34,0.53809 c 9.43467,-5.78137 8.5685,-31.14417 18.25201,-10.13991 8.51207,-5.15515 4.97967,-37.82934 12.89686,-15.41705 -0.81206,-13.545 4.43362,-27.59709 14.03611,-8.58979 11.21393,-11.25199 -22.12346,-36.54307 3.73185,-22.61206 7.39261,-8.32887 22.02646,2.3413 11.49107,-15.19065 -6.96534,-4.92544 -8.27602,-35.6849 1.22642,-19.30843 6.40965,-27.74185 -21.42506,-54.48789 -6.94576,-81.14048 11.04049,-8.43982 17.51697,-8.88342 4.62442,-22.8551 -7.57774,-7.1285 -24.00985,-41.91449 -3.40446,-24.98616 17.68708,15.57736 -0.75379,-20.42351 -12.27985,-17.7688 -21.54795,-26.28006 29.4825,5.03394 25.88847,-1.83367 -12.93155,-15.02155 -27.56331,-34.57616 -13.34155,-52.55026 -3.43885,14.9622 -17.76213,21.98349 -18.85115,0.98394 -11.58222,-25.16875 22.27987,-30.87146 20.23664,-3.98563 -2.94332,14.58713 14.34179,52.19318 26.10069,40.73464 -4.72716,-19.92747 8.22372,-15.02296 8.87548,1.8634 13.81768,3.86271 7.54652,35.05779 25.47008,30.20993 -8.38454,-11.80237 -21.18491,-22.26409 -1.61601,-28.95797 1.19803,-11.19529 -30.44212,-46.31768 -1.14815,-32.28461 27.62007,-1.73153 9.99214,-40.29987 -3.77784,-52.21137 -16.88215,-13.30675 -25.20219,-33.31759 -30.26872,-50.39205 -2.27278,17.75507 -0.95496,-5.50816 -7.66601,2.06084 -7.30217,-18.45465 -11.77085,-55.1661 -39.84034,-47.9707 -14.32976,-5.5722 14.48902,-32.91483 -12.35044,-21.60959 -20.20031,-10.78819 -42.44626,-34.74122 -65.56885,-13.45771 -22.90028,25.70971 -30.95055,-26.81868 -3.4892,-23.9975 23.8688,0.29909 45.22676,13.3188 68.4949,16.97686 43.32573,15.72249 66.2488,61.07442 74.50821,103.81944 11.9321,28.30755 47.81575,39.21726 54.2029,71.25011 10.41005,29.73892 14.1607,61.56886 15.12692,92.872 1.56052,15.91675 -25.81019,46.0014 -22.63028,13.45184 -4.34211,-19.9813 -61.54756,-24.24416 -33.78236,-0.1656 4.0481,7.31866 19.04048,32.34568 14.39734,7.73288 4.40704,-13.83177 28.27335,17.53912 8.74377,25.42372 -22.52879,7.15935 -31.56405,30.40943 -22.92369,51.76186 6.40111,18.46177 4.77288,42.43465 -16.18037,50.35281 -25.59522,19.84043 -46.50448,48.88062 -80.21109,55.23301 -3.91484,1.25149 -7.90833,2.39781 -12.02802,2.69781 z m 108.9092,-76.55833 c 16.07862,-13.54296 -23.84528,-29.72469 -2.40779,-8.3153 1.87233,2.0694 -3.0351,20.53842 2.40779,8.3153 z m -12.551,-4.41422 c -10.20756,-13.11708 -9.78349,-41.1133 -29.0574,-42.93516 13.91505,11.4172 11.95753,34.46903 29.0574,42.93516 z m 1.36116,-37.5588 c 7.08573,-1.27913 8.81973,-15.36042 -0.88491,-23.91393 -3.46419,4.94476 -1.51283,25.96796 0.88491,23.91393 z m 63.1655,-91.87171 c -6.88592,-16.2415 -7.85284,-48.57157 -27.54462,-51.58041 -0.80249,14.89253 8.71535,36.52872 20.58904,34.48329 1.90832,5.06435 6.94628,41.99953 6.95558,17.09712 z M 471.29066,830.29392 c -9.2218,-6.98725 4.36668,-41.78426 2.50143,-16.01994 7.55406,-26.2656 13.23646,28.36702 -2.50143,16.01994 z m -9.38,-10.05186 c 1.72389,-20.46067 -54.39052,-33.72289 -23.81701,-47.36477 15.18701,-1.57808 -30.574,-4.65043 -31.73128,-23.06498 -22.54167,-26.40841 34.98184,-37.71953 12.82713,-59.12752 -22.96955,-8.99985 -16.35863,-36.10015 -31.43054,-51.9602 -16.52768,-18.38961 -19.66618,-43.9713 -7.68851,-65.46312 10.89409,-27.57856 40.31799,-46.74043 40.93717,-78.43052 19.35535,-21.82396 31.29925,-50.97839 57.06934,-66.77815 1.93992,-14.93921 -31.93116,9.03938 -26.74223,8.01751 -16.94115,-26.61262 42.64883,-29.87844 26.27663,-56.51681 18.32975,-10.84948 44.16071,-13.8214 62.63474,-1.84132 22.25711,31.63978 -35.80791,33.24695 -55.78021,35.83209 -17.89466,2.54322 23.36336,0.65721 6.9455,15.22046 -4.47678,10.55681 -32.53822,24.14806 -19.65488,33.62651 18.78599,-20.2529 26.20046,11.12291 18.64659,28.8674 -12.41347,26.79209 24.63295,8.56234 38.60501,23.11388 16.32245,8.6861 36.79756,12.0475 52.78496,0.60155 32.16411,-12.6525 66.8757,12.48575 78.71732,41.98306 -12.40681,26.02963 -42.34766,-5.37282 -61.20784,-1.63261 5.41469,-1.06237 29.89168,15.44654 7.94743,17.05191 -23.86041,-1.07795 -35.55961,-39.61667 -56.62644,-34.25675 -0.37748,18.29548 -25.50929,55.07724 0.18832,61.97621 12.37681,-15.35121 30.32079,19.99479 32.80847,-5.08598 -2.7501,-25.5232 45.02989,33.15316 9.49245,18.75589 -17.40629,24.26725 46.04246,11.35823 39.21196,40.11305 -13.77007,-8.42985 -12.32807,15.49592 3.2482,12.42203 14.01808,4.10581 27.28499,24.95405 22.87418,37.04974 -27.69567,7.49274 -32.28009,20.49297 -35.79976,10.62811 -18.32158,-17.21193 5.51225,19.99995 11.46636,25.97081 7.45532,23.63681 -22.35248,4.74605 -20.46438,-2.05309 2.10798,-11.57728 -5.04922,-20.62001 -4.6863,-3.69855 -10.92683,-2.17717 -1.07476,-40.00215 -12.09694,-26.30873 -0.92752,10.35997 -0.0802,37.50195 -9.70578,29.36704 1.57802,-9.92757 1.51715,-40.19036 -11.78932,-19.88514 -17.53808,20.10582 -9.91077,-38.91494 -25.62745,-8.2841 -10.66369,17.66457 -14.96934,46.75436 -2.05903,61.85349 21.61784,-15.67863 -5.61582,49.80821 -5.0113,15.84408 2.08587,-17.193 -2.81738,24.18118 -4.75259,-1.9969 4.81649,31.01386 -40.70449,-4.65866 -10.84515,-10.96808 12.85423,-23.80128 2.98275,-58.61232 26.40534,-75.57539 -12.60834,2.51239 -23.66756,32.40819 -43.20465,26.43482 -6.64782,3.41246 -32.58627,17.47806 -14.44959,21.12334 -18.69841,6.3332 -52.68747,38.26567 -43.96016,47.00973 18.81124,-30.67941 17.57794,20.32594 10.04424,27.43 z m 5.49455,-61.45591 c 4.94855,-12.23893 35.80943,-37.09082 4.52583,-35.98321 1.74694,12.26828 0.0955,24.50707 -4.52583,35.98321 z m 34.64645,-36.59309 c -13.40551,-7.09359 -12.80528,-16.85022 3.10803,-10.88898 35.14909,-0.0345 -37.52303,-31.16666 -19.85851,-0.5478 0.94742,7.44051 8.70383,16.85727 16.75048,11.43678 z m 55.84251,-53.68832 c -33.35146,-17.7664 -23.77561,-13.37428 -17.48825,-2.68259 3.98281,6.77278 16.20338,5.36872 17.48825,2.68259 z m -65.40281,-52.33728 c 17.73014,-13.23329 41.27145,-26.3224 44.65567,-50.24953 6.393,-20.91705 -42.96002,-16.71072 -15.38313,-4.58737 6.00577,19.88603 -45.58038,-11.41422 -31.02554,15.6874 -8.97427,-0.89274 -9.50625,30.12369 1.753,39.1495 z m 168.2865,-57.36894 c -12.45262,-6.77596 -47.6738,-42.76014 -46.67069,-18.9321 16.30538,4.41045 28.02493,24.32747 46.67069,18.9321 z M 490.86078,539.96089 c 12.94459,4.36423 27.3387,-18.29426 5.98832,-10.07693 -4.39429,0.48107 -8.9014,5.84854 -5.98832,10.07693 z m 84.96855,278.79701 c -4.76038,-9.97271 -6.33898,-42.25806 -11.81623,-13.06153 -9.06713,-21.05131 5.6864,-55.47576 15.68088,-67.03206 6.42846,7.23349 21.53628,41.53472 9.76935,38.42057 2.18683,-12.95188 -13.67745,-5.8879 -10.41591,-7.69527 -1.06319,16.4295 2.90143,33.54614 -3.21809,49.36829 z m -77.48051,-27.14497 c -29.4156,-14.65381 34.57811,-45.51902 15.94604,-20.55813 -12.73458,44.53683 -15.27192,10.46406 -15.94604,20.55813 z m -17.05028,-18.89491 c -4.3807,-15.10354 24.6568,-18.23413 5.05996,-4.14831 -0.69692,4.18734 -6.38913,14.9479 -5.05996,4.14831 z m 196.092,-1.38976 c -15.69501,-4.46241 -8.31063,-47.13439 2.02492,-39.54153 3.29528,13.46937 -6.92952,26.327 -2.02492,39.54153 z m -212.089,-5.00652 c -2.09401,-15.9778 4.56002,5.43211 0,0 z m 94.7,-2.3724 c 4.72055,-9.6484 -20.30221,-41.885 0.40215,-30.67763 4.27202,9.65088 4.05557,21.13169 -0.40215,30.67763 z m 26.8024,-11.25789 c 2.38488,-3.07381 0.49551,5.58781 0,0 z m 94.3798,-11.22377 c -8.01893,-17.01188 12.8852,-23.92411 0,0 z m 5.884,-9.37183 c -10.82127,-12.48068 13.51538,-13.01074 0,0 z m 15.22,-21.87063 c -21.53115,1.67701 -8.05361,-28.60497 -0.0809,-9.63049 0.63011,3.1822 0.47956,6.43839 0.0809,9.63049 z m -26.41648,-28.35961 c -15.03951,3.74085 -49.15086,-29.5341 -28.63421,-35.80921 13.80225,6.99899 22.93568,21.89813 28.63421,35.80921 z m -27.5081,-5.5561 c -1.30202,-5.88208 2.28013,1.85369 0,0 z m 49.2884,-9.09681 c -21.68001,-6.17439 -25.72056,-27.36705 -23.53621,-44.0828 -5.53263,-18.7643 14.04063,15.62569 16.34586,22.06117 3.12513,7.03012 6.6599,14.22295 7.19035,22.02163 z m 99.21,-4.192 c 1.71133,-3.69824 1.23351,8.72175 0,0 z m -94.959,-23.39553 c -29.64034,-12.78374 14.24325,-8.99872 0,0 z m -15.28,-26.53171 c -10.40729,-9.7837 -6.54225,-41.77174 3.22805,-43.26564 3.22247,14.37275 -8.81222,28.67191 -3.22805,43.26564 z m -94.321,-0.80842 c 0.37326,-7.09825 3.36108,4.7364 0,0 z m 184.1253,-56.22159 c -10.88062,-3.88877 -26.14915,-30.91826 -20.13199,-33.84023 1.12304,14.84927 36.88248,21.78608 20.13199,33.84023 z m -42.1331,-24.72937 c -7.15164,-17.38764 -34.07555,-34.7376 -26.45479,-53.61399 25.41485,-1.84595 28.65062,34.99805 26.45479,53.61399 z m -35.881,-56.96985 c -7.71777,-11.39699 10.49384,-14.61142 0,0 z m -5.979,-3.3093 c -19.97295,-5.4856 -6.94757,-46.14845 3.03696,-16.31248 1.96659,5.39456 1.46406,12.25992 -3.03696,16.31248 z M 665.35943,430.8323 c 6.91723,-15.46191 21.85684,6.41367 3.28178,0.5061 -1.43803,2.12404 -2.03539,0.84875 -3.28178,-0.5061 z m -35.40549,-18.83477 c -15.44344,3.38543 -31.38939,-35.01249 -8.58165,-22.52965 -2.29833,-4.41669 27.07032,9.24083 8.58165,22.52965 z m 57.52608,-11.91131 c 1.73341,-10.1691 1.61985,7.19369 0,0 z M 552.10665,364.4056 c 11.79741,-21.15345 49.97201,7.36745 20.18741,14.4766 2.95998,5.90153 -27.36274,-13.31036 -20.18741,-14.4766 z m 103.76447,17.44567 c -1.39194,-6.39219 5.44811,2.75588 0,0 z"
       id="path2830"
       inkscape:connector-curvature="0"
       sodipodi:nodetypes="ccccccccccccccccccccccccccccccccccccccccccccccccccccccccccccccccccccccccccccccccccccccccccccccccccccccccccccccccccccccccccccccccccsccccccccccccccccccccccccccccccccccccccccccccccccccccccccccccccccccccccccccccccccccc" />
  </g>
  <metadata
     id="metadata6">
    <rdf:RDF>
      <cc:Work>
        <dc:format>image/svg+xml</dc:format>
        <dc:type
           rdf:resource="http://purl.org/dc/dcmitype/StillImage" />
        <cc:license
           rdf:resource="http://creativecommons.org/licenses/publicdomain/" />
        <dc:publisher>
          <cc:Agent
             rdf:about="http://openclipart.org/">
            <dc:title>Openclipart</dc:title>
          </cc:Agent>
        </dc:publisher>
        <dc:title>Karl Marx</dc:title>
        <dc:date>2011-07-18T13:31:25</dc:date>
        <dc:description />
        <dc:source>https://openclipart.org/detail/150271/karl-marx-by-worker</dc:source>
        <dc:creator>
          <cc:Agent>
            <dc:title>worker</dc:title>
          </cc:Agent>
        </dc:creator>
        <dc:subject>
          <rdf:Bag>
            <rdf:li>capital</rdf:li>
            <rdf:li>capitalism</rdf:li>
            <rdf:li>communism</rdf:li>
            <rdf:li>famous-people</rdf:li>
            <rdf:li>karl</rdf:li>
            <rdf:li>marx</rdf:li>
            <rdf:li>philosophy</rdf:li>
            <rdf:li>revolution</rdf:li>
            <rdf:li>science</rdf:li>
            <rdf:li>socialism</rdf:li>
            <rdf:li>worker</rdf:li>
          </rdf:Bag>
        </dc:subject>
      </cc:Work>
      <cc:License
         rdf:about="http://creativecommons.org/licenses/publicdomain/">
        <cc:permits
           rdf:resource="http://creativecommons.org/ns#Reproduction" />
        <cc:permits
           rdf:resource="http://creativecommons.org/ns#Distribution" />
        <cc:permits
           rdf:resource="http://creativecommons.org/ns#DerivativeWorks" />
      </cc:License>
    </rdf:RDF>
  </metadata>
</svg>
